<svg width="50" height="48" viewBox="0 0 50 48" fill="none" xmlns="http://www.w3.org/2000/svg">
<path d="M49.8497 14.105C49.728 11.5503 49.3053 9.80566 48.6874 8.2793C48.0598 6.67786 47.0757 5.22729 45.8038 4.02832C44.5553 2.80737 43.0439 1.86218 41.3757 1.2594C39.7854 0.666504 37.9684 0.261108 35.3073 0.14502C32.6412 0.027832 31.7894 0 25 0C18.2106 0 17.3588 0.027832 14.6927 0.144287C12.0316 0.261108 10.2146 0.66687 8.62427 1.26013C6.9561 1.86255 5.4451 2.80737 4.19617 4.02832C2.92435 5.22693 1.93977 6.67749 1.31187 8.27893C0.694275 9.80566 0.271988 11.5503 0.151062 14.1046C0.0289917 16.6644 0 17.4818 0 23.9996C0 30.5178 0.0289917 31.3356 0.151062 33.895C0.272369 36.4493 0.695038 38.194 1.31302 39.7207C1.94054 41.3218 2.92473 42.7727 4.19655 43.9713C5.4451 45.1923 6.95648 46.1371 8.62465 46.7395C10.2146 47.3331 12.0319 47.7385 14.6931 47.8553C17.3595 47.9722 18.211 47.9996 25.0004 47.9996C31.7898 47.9996 32.6416 47.9722 35.3077 47.8553C37.9688 47.7385 39.7858 47.3331 41.3761 46.7395C44.7342 45.4929 47.3888 42.9445 48.6874 39.7207C49.3057 38.194 49.728 36.4493 49.8497 33.895C49.971 31.3352 50 30.5178 50 24C50 17.4818 49.971 16.6644 49.8497 14.105ZM45.3495 33.6984C45.2385 36.0385 44.8311 37.3092 44.4889 38.1548C43.6478 40.248 41.9247 41.9022 39.7442 42.7097C38.8634 43.0382 37.5397 43.4293 35.1021 43.5359C32.4665 43.6516 31.6757 43.6758 25 43.6758C18.3239 43.6758 17.5335 43.6516 14.8975 43.5359C12.4603 43.4293 11.1366 43.0382 10.2554 42.7097C9.16977 42.3248 8.18748 41.7114 7.38106 40.9142C6.5506 40.14 5.91164 39.1974 5.51071 38.1548C5.16853 37.3092 4.76112 36.0385 4.65012 33.6984C4.52995 31.1678 4.50439 30.4087 4.50439 24.0004C4.50439 17.5917 4.52995 16.8329 4.65012 14.302C4.76151 11.9619 5.16853 10.6912 5.51071 9.84558C5.91164 8.80298 6.55098 7.85999 7.38106 7.08582C8.18748 6.28857 9.16977 5.67517 10.2558 5.29065C11.1366 4.96179 12.4603 4.57104 14.8979 4.46411C17.5339 4.34875 18.3247 4.32422 25 4.32422H24.9996C31.675 4.32422 32.4657 4.34875 35.1021 4.46448C37.5397 4.57104 38.863 4.96216 39.7442 5.29065C40.8298 5.67554 41.8121 6.28894 42.6186 7.08582C43.449 7.85999 44.088 8.80298 44.4885 9.84558C44.8311 10.6912 45.2385 11.9619 45.3495 14.302C45.4697 16.8325 45.4952 17.5917 45.4952 24C45.4952 30.4087 45.47 31.1675 45.3495 33.6984Z" fill="url(#paint0_linear)"/>
<path d="M24.9997 11.6755C17.9097 11.6755 12.1621 17.1936 12.1621 24C12.1621 30.8064 17.9097 36.3241 24.9997 36.3241C32.0901 36.3241 37.8377 30.8064 37.8377 24C37.8377 17.1936 32.0901 11.6755 24.9997 11.6755ZM24.9997 31.9999C20.3977 31.9995 16.6665 28.418 16.6669 23.9996C16.6669 19.5817 20.3977 15.9998 25.0001 15.9998C29.6025 16.0001 33.3333 19.5817 33.3333 23.9996C33.3333 28.418 29.6021 31.9999 24.9997 31.9999Z" fill="url(#paint1_linear)"/>
<path d="M41.3449 11.1888C41.3449 12.7793 40.0017 14.0687 38.345 14.0687C36.6879 14.0687 35.3447 12.7793 35.3447 11.1888C35.3447 9.59802 36.6879 8.30859 38.345 8.30859C40.0017 8.30859 41.3449 9.59802 41.3449 11.1888Z" fill="url(#paint2_linear)"/>
<defs>
<linearGradient id="paint0_linear" x1="4.19591" y1="43.9715" x2="44.1065" y2="2.39801" gradientUnits="userSpaceOnUse">
<stop/>
<stop offset="0.5"/>
<stop offset="1"/>
</linearGradient>
<linearGradient id="paint1_linear" x1="15.9223" y1="32.7144" x2="33.3369" y2="14.5742" gradientUnits="userSpaceOnUse">
<stop/>
<stop offset="0.5"/>
<stop offset="1"/>
</linearGradient>
<linearGradient id="paint2_linear" x1="36.2236" y1="13.2251" x2="40.293" y2="8.98608" gradientUnits="userSpaceOnUse">
<stop/>
<stop offset="1"/>
</linearGradient>
</defs>
</svg>
