<svg width="171" height="233" xmlns="http://www.w3.org/2000/svg">
 <!-- Created with Method Draw - http://github.com/duopixel/Method-Draw/ -->

 <g>
  <title>background</title>
  <rect fill="none" id="canvas_background" height="235" width="173" y="-1" x="-1"/>
  <g display="none" overflow="visible" y="0" x="0" height="100%" width="100%" id="canvasGrid">
   <rect fill="url(#gridpattern)" stroke-width="0" y="2" x="2" height="600" width="800"/>
  </g>
 </g>
 <g>
  <title>Layer 1</title>
  <mask transform="matrix(60.8399806594864,0,0,60.8399806594864,0,0) " id="svg_10">
   <path id="svg_12" d="m29.2133,23.1443l-6.0721,-4.0494c-0.7706,-0.5098 -1.8035,-0.342 -2.3732,0.3854l-1.7688,2.2742c-0.2273,0.2997 -0.6405,0.3866 -0.9693,0.204l-0.3365,-0.1855c-1.1153,-0.608 -2.5031,-1.3648 -5.2991,-4.1619c-2.79614,-2.7971 -3.55452,-4.1859 -4.16246,-5.2992l-0.18448,-0.3364c-0.18519,-0.3288 -0.09989,-0.7438 0.19995,-0.9729l2.27259,-1.76822c0.7272,-0.56974 0.8952,-1.60236 0.386,-2.37317l-4.0494,-6.0721c-0.52182,-0.78493 -1.56873,-1.02056 -2.37656,-0.53495l-2.53913,1.52527c-0.79782,0.46903 -1.38314,1.22864 -1.63324,2.11966c-0.91433,3.3315 -0.22649,9.08111 8.24327,17.55191c6.73756,6.737 11.75326,8.5487 15.20076,8.5487c0.7934,0.0034 1.5837,-0.0998 2.3497,-0.3069c0.8912,-0.2498 1.6509,-0.8352 2.1196,-1.6332l1.5268,-2.5376c0.4863,-0.808 0.2508,-1.8556 -0.5344,-2.3777zm-0.327,1.8647l-1.5233,2.5391c-0.3365,0.576 -0.883,0.9995 -1.5248,1.1819c-3.0755,0.8443 -8.4487,0.145 -16.58,-7.9864c-8.13132,-8.1313 -8.83065,-13.50399 -7.98626,-16.58c0.18255,-0.64256 0.60659,-1.18968 1.1833,-1.52678l2.53914,-1.52327c0.35051,-0.21091 0.8049,-0.10868 1.03133,0.23194l2.19969,3.3025l1.8462,2.76908c0.2211,0.33434 0.1485,0.78246 -0.16692,1.02986l-2.27316,1.76817c-0.69177,0.529 -0.88932,1.4861 -0.4634,2.2457l0.1805,0.328c0.63892,1.1718 1.43328,2.6296 4.33338,5.5292c2.9001,2.8995 4.3574,3.694 5.5286,4.3328l0.3285,0.181c0.7595,0.4258 1.7167,0.2284 2.2457,-0.4634l1.7682,-2.2732c0.2474,-0.3152 0.6954,-0.3878 1.0298,-0.1669l6.0716,4.0494c0.3409,0.2262 0.4431,0.6808 0.2319,1.0313z"/>
  </mask>
  <mask transform="matrix(0.07111111852857821,0,0,0.07111111852857821,0,0) " id="svg_22">
   <path id="svg_24" d="m29.2133,23.1443l-6.0721,-4.0494c-0.7706,-0.5098 -1.8035,-0.342 -2.3732,0.3854l-1.7688,2.2742c-0.2273,0.2997 -0.6405,0.3866 -0.9693,0.204l-0.3365,-0.1855c-1.1153,-0.608 -2.5031,-1.3648 -5.2991,-4.1619c-2.79614,-2.7971 -3.55452,-4.1859 -4.16246,-5.2992l-0.18448,-0.3364c-0.18519,-0.3288 -0.09989,-0.7438 0.19995,-0.9729l2.27259,-1.76822c0.7272,-0.56974 0.8952,-1.60236 0.386,-2.37317l-4.0494,-6.0721c-0.52182,-0.78493 -1.56873,-1.02056 -2.37656,-0.53495l-2.53913,1.52527c-0.79782,0.46903 -1.38314,1.22864 -1.63324,2.11966c-0.91433,3.3315 -0.22649,9.08111 8.24327,17.55191c6.73756,6.737 11.75326,8.5487 15.20076,8.5487c0.7934,0.0034 1.5837,-0.0998 2.3497,-0.3069c0.8912,-0.2498 1.6509,-0.8352 2.1196,-1.6332l1.5268,-2.5376c0.4863,-0.808 0.2508,-1.8556 -0.5344,-2.3777zm-0.327,1.8647l-1.5233,2.5391c-0.3365,0.576 -0.883,0.9995 -1.5248,1.1819c-3.0755,0.8443 -8.4487,0.145 -16.58,-7.9864c-8.13132,-8.1313 -8.83065,-13.50399 -7.98626,-16.58c0.18255,-0.64256 0.60659,-1.18968 1.1833,-1.52678l2.53914,-1.52327c0.35051,-0.21091 0.8049,-0.10868 1.03133,0.23194l2.19969,3.3025l1.8462,2.76908c0.2211,0.33434 0.1485,0.78246 -0.16692,1.02986l-2.27316,1.76817c-0.69177,0.529 -0.88932,1.4861 -0.4634,2.2457l0.1805,0.328c0.63892,1.1718 1.43328,2.6296 4.33338,5.5292c2.9001,2.8995 4.3574,3.694 5.5286,4.3328l0.3285,0.181c0.7595,0.4258 1.7167,0.2284 2.2457,-0.4634l1.7682,-2.2732c0.2474,-0.3152 0.6954,-0.3878 1.0298,-0.1669l6.0716,4.0494c0.3409,0.2262 0.4431,0.6808 0.2319,1.0313z"/>
  </mask>
  <mask transform="matrix(22.29939272374395,0,0,22.29939272374395,0,0) " id="svg_34">
   <path id="svg_36" d="m29.2133,23.1443l-6.0721,-4.0494c-0.7706,-0.5098 -1.8035,-0.342 -2.3732,0.3854l-1.7688,2.2742c-0.2273,0.2997 -0.6405,0.3866 -0.9693,0.204l-0.3365,-0.1855c-1.1153,-0.608 -2.5031,-1.3648 -5.2991,-4.1619c-2.79614,-2.7971 -3.55452,-4.1859 -4.16246,-5.2992l-0.18448,-0.3364c-0.18519,-0.3288 -0.09989,-0.7438 0.19995,-0.9729l2.27259,-1.76822c0.7272,-0.56974 0.8952,-1.60236 0.386,-2.37317l-4.0494,-6.0721c-0.52182,-0.78493 -1.56873,-1.02056 -2.37656,-0.53495l-2.53913,1.52527c-0.79782,0.46903 -1.38314,1.22864 -1.63324,2.11966c-0.91433,3.3315 -0.22649,9.08111 8.24327,17.55191c6.73756,6.737 11.75326,8.5487 15.20076,8.5487c0.7934,0.0034 1.5837,-0.0998 2.3497,-0.3069c0.8912,-0.2498 1.6509,-0.8352 2.1196,-1.6332l1.5268,-2.5376c0.4863,-0.808 0.2508,-1.8556 -0.5344,-2.3777zm-0.327,1.8647l-1.5233,2.5391c-0.3365,0.576 -0.883,0.9995 -1.5248,1.1819c-3.0755,0.8443 -8.4487,0.145 -16.58,-7.9864c-8.13132,-8.1313 -8.83065,-13.50399 -7.98626,-16.58c0.18255,-0.64256 0.60659,-1.18968 1.1833,-1.52678l2.53914,-1.52327c0.35051,-0.21091 0.8049,-0.10868 1.03133,0.23194l2.19969,3.3025l1.8462,2.76908c0.2211,0.33434 0.1485,0.78246 -0.16692,1.02986l-2.27316,1.76817c-0.69177,0.529 -0.88932,1.4861 -0.4634,2.2457l0.1805,0.328c0.63892,1.1718 1.43328,2.6296 4.33338,5.5292c2.9001,2.8995 4.3574,3.694 5.5286,4.3328l0.3285,0.181c0.7595,0.4258 1.7167,0.2284 2.2457,-0.4634l1.7682,-2.2732c0.2474,-0.3152 0.6954,-0.3878 1.0298,-0.1669l6.0716,4.0494c0.3409,0.2262 0.4431,0.6808 0.2319,1.0313z"/>
  </mask>
  <g id="svg_50">
   <path id="svg_46" fill="#ffffff" d="m85.31428,0.68567c-46.80356,0 -84.8781,36.84635 -84.8781,82.14047c0,44.06099 78.47366,143.66544 81.81554,147.88465c0.36112,0.45448 0.82409,0.82255 1.35573,1.07564c0.53087,0.25309 1.11499,0.38504 1.70682,0.38504c0.59183,0 1.17595,-0.13195 1.70682,-0.38504c0.53165,-0.25309 0.99462,-0.62115 1.35573,-1.07564c3.34188,-4.21921 81.81554,-103.82366 81.81554,-147.88465c0,-45.29412 -38.07477,-82.14047 -84.8781,-82.14047zm0,221.53577c-14.69456,-19.11686 -77.16191,-102.54894 -77.16191,-139.3953c0,-41.17305 34.61676,-74.67313 77.16191,-74.67313c42.54553,0 77.16191,33.50007 77.16191,74.67313c0,36.84635 -62.46719,120.27843 -77.16191,139.3953z"/>
   <path id="svg_47" fill="#ffffff" d="m85.71428,29.61954c-9.91978,0 -19.61679,2.75769 -27.86478,7.92437c-8.24799,5.16668 -14.6765,12.51034 -18.47256,21.10216c-3.79613,8.5919 -4.78944,18.04647 -2.85414,27.16701c1.93522,9.12131 6.71208,17.49955 13.72641,24.07529c7.01433,6.57651 15.95106,11.05421 25.68025,12.86906c9.72927,1.81408 19.81356,0.88273 28.97808,-2.67597c9.16452,-3.55871 16.998,-9.58582 22.5089,-17.31822c5.51167,-7.73239 8.45309,-16.82361 8.45309,-26.12316c-0.01466,-12.46651 -5.30334,-24.41858 -14.70629,-33.23371c-9.40295,-8.81521 -22.15164,-13.7734 -35.44895,-13.78683zm0,86.80753c-8.39367,0 -16.59884,-2.33415 -23.5779,-6.70537c-6.97906,-4.37199 -12.41859,-10.58584 -15.63069,-17.85604c-3.2121,-7.27019 -4.05254,-15.26957 -2.41501,-22.98753c1.63753,-7.71789 5.67942,-14.80714 11.61464,-20.37144c5.93522,-5.56422 13.49708,-9.35357 21.72949,-10.8887c8.2324,-1.53521 16.76574,-0.74731 24.51974,2.26408c7.75477,3.01132 14.38298,8.11087 19.04664,14.65374c4.66289,6.54287 7.15214,14.23521 7.15214,22.10426c-0.01312,10.54803 -4.48851,20.66164 -12.44467,28.12011c-7.95539,7.45924 -18.74263,11.65453 -29.99438,11.66688z"/>
   <path id="svg_48" fill="#ffffff" d="m116.5775,69.40614c0,-2.53955 -0.71298,-5.03427 -2.06794,-7.23347c-1.35419,-2.19927 -3.30253,-4.02546 -5.64825,-5.29516c-2.34649,-1.26962 -5.00781,-1.938 -7.71619,-1.938c-2.70915,0.00008 -5.3697,0.66861 -7.71619,1.93831c-2.34572,-1.27055 -5.00704,-1.93954 -7.71619,-1.93954c-2.70915,0 -5.37047,0.66899 -7.71596,1.93954c-1.90752,-1.03158 -4.02855,-1.66847 -6.22041,-1.86794c-2.19186,-0.19939 -4.40394,0.04329 -6.48746,0.71174c-2.0836,0.66845 -3.99043,1.74725 -5.59239,3.16387c-1.60196,1.41662 -2.86201,3.13825 -3.69544,5.04924c-0.83343,1.91099 -1.22086,3.96713 -1.13644,6.03013c0.08442,2.06308 0.6389,4.08526 1.62603,5.93059c0.98721,1.84571 2.38423,3.47151 4.0973,4.76938c1.71307,1.29709 3.70246,2.23538 5.8346,2.75237l0,7.69073c-1.02324,0 -2.00459,0.38118 -2.72814,1.05943c-0.72355,0.67825 -1.12996,1.59802 -1.12996,2.55715c0,0.95989 0.40641,1.87966 1.12996,2.55792c0.72355,0.67825 1.70489,1.05943 2.72814,1.05943l38.58064,0c1.02317,0 2.00467,-0.38118 2.72844,-1.05943c0.72378,-0.67825 1.12965,-1.59802 1.12965,-2.55792c0,-0.95912 -0.40587,-1.87889 -1.12965,-2.55715c-0.72378,-0.67825 -1.70528,-1.05943 -2.72844,-1.05943l0,-7.69073c3.31102,-0.80557 6.24317,-2.61888 8.33734,-5.15364c2.09495,-2.53554 3.23308,-5.65064 3.23694,-8.85742zm-15.43238,7.23393c-1.02317,0 -2.00467,0.38118 -2.72767,1.05943c-0.72378,0.67825 -1.13042,1.59802 -1.13042,2.55715l0,10.85128l-23.14834,0l0,-10.85128c0,-0.95912 -0.40641,-1.87889 -1.12996,-2.55715c-0.72355,-0.67825 -1.70489,-1.05943 -2.72806,-1.05943c-1.25126,0.00077 -2.48392,-0.28318 -3.59181,-0.82872c-1.10797,-0.54476 -2.05791,-1.33413 -2.76787,-2.30012c-0.71004,-0.96584 -1.15889,-2.07905 -1.30789,-3.24373c-0.149,-1.16468 0.00633,-2.3458 0.45263,-3.44165c0.4463,-1.09585 1.17016,-2.07349 2.10914,-2.84874c0.93906,-0.77517 2.06508,-1.32472 3.281,-1.60119c1.21599,-0.27639 2.48538,-0.27146 3.69891,0.01435c1.21345,0.28588 2.33461,0.84407 3.26673,1.62657c0.70819,0.59399 1.62511,0.92232 2.57528,0.92232c0.9504,0 1.86709,-0.32832 2.57543,-0.92232c1.41283,-1.18775 3.24311,-1.84463 5.14053,-1.84463c1.89741,0 3.72846,0.65688 5.1413,1.84463c0.70835,0.59399 1.62503,0.92232 2.57489,0.92232c0.95063,0 1.86732,-0.32832 2.57566,-0.92232c0.93212,-0.7825 2.05328,-1.34069 3.26626,-1.62657c1.21376,-0.28581 2.48307,-0.29075 3.69914,-0.01435c1.21607,0.27647 2.34186,0.82602 3.28092,1.60119c0.93906,0.77525 1.66284,1.75289 2.10961,2.84874c0.446,1.09585 0.60109,2.27697 0.45217,3.44165c-0.14892,1.16468 -0.598,2.2779 -1.30789,3.24373c-0.70989,0.96599 -1.65975,1.75536 -2.7678,2.30012c-1.10804,0.54553 -2.34032,0.82949 -3.59189,0.82872z"/>
   <path id="svg_49" fill="#ffffff" d="m85.71428,73.02311c-1.02317,0 -2.00467,0.3811 -2.72844,1.05936c-0.72301,0.67872 -1.12965,1.59849 -1.12965,2.55761l0,7.23393c0,0.95912 0.40664,1.87889 1.12965,2.55792c0.72378,0.67825 1.70528,1.05943 2.72844,1.05943c1.02317,0 2.00467,-0.38118 2.72844,-1.05943c0.72301,-0.67902 1.12965,-1.59879 1.12965,-2.55792l0,-7.23393c0,-0.95912 -0.40664,-1.87889 -1.12965,-2.55761c-0.72378,-0.67825 -1.70528,-1.05936 -2.72844,-1.05936z"/>
  </g>
 </g>
</svg>