<svg width="22" height="30" viewBox="0 0 22 30" fill="none" xmlns="http://www.w3.org/2000/svg">
<path d="M11 0.468994C4.93437 0.468994 0 5.24419 0 11.1142C0 16.8244 10.17 29.7329 10.6031 30.2797C10.6499 30.3386 10.7099 30.3863 10.7788 30.4191C10.8476 30.4519 10.9233 30.469 11 30.469C11.0767 30.469 11.1524 30.4519 11.2212 30.4191C11.2901 30.3863 11.3501 30.3386 11.3969 30.2797C11.83 29.7329 22 16.8244 22 11.1142C22 5.24419 17.0656 0.468994 11 0.468994ZM11 29.1795C9.09562 26.702 1 15.8894 1 11.1142C1 5.77827 5.48625 1.43674 11 1.43674C16.5138 1.43674 21 5.77827 21 11.1142C21 15.8894 12.9044 26.702 11 29.1795Z" fill="black"/>
<path d="M11 4.21875C9.71442 4.21875 8.45771 4.57614 7.38879 5.24573C6.31987 5.91532 5.48675 6.86704 4.99479 7.98052C4.50282 9.09401 4.37409 10.3193 4.6249 11.5013C4.8757 12.6834 5.49477 13.7692 6.40381 14.6214C7.31285 15.4737 8.47103 16.054 9.73191 16.2892C10.9928 16.5243 12.2997 16.4036 13.4874 15.9424C14.6751 15.4812 15.6903 14.7001 16.4045 13.698C17.1188 12.6959 17.5 11.5177 17.5 10.3125C17.4981 8.69687 16.8127 7.14791 15.5941 6.00549C14.3755 4.86306 12.7233 4.22049 11 4.21875ZM11 15.4688C9.9122 15.4688 8.84883 15.1663 7.94436 14.5998C7.03989 14.0332 6.33494 13.2279 5.91866 12.2857C5.50238 11.3435 5.39346 10.3068 5.60568 9.30657C5.8179 8.30635 6.34172 7.3876 7.11091 6.66648C7.8801 5.94537 8.8601 5.45428 9.927 5.25533C10.9939 5.05637 12.0998 5.15848 13.1047 5.54875C14.1097 5.93901 14.9687 6.5999 15.5731 7.44784C16.1774 8.29578 16.5 9.29269 16.5 10.3125C16.4983 11.6795 15.9183 12.9902 14.8872 13.9568C13.8562 14.9235 12.4582 15.4672 11 15.4688Z" fill="black"/>
<path d="M14.9998 9.375C14.9998 9.04588 14.9074 8.72257 14.7318 8.43756C14.5563 8.15254 14.3038 7.91587 13.9998 7.75132C13.6957 7.58678 13.3508 7.50016 12.9998 7.50016C12.6487 7.50017 12.3039 7.58681 11.9998 7.75136C11.6958 7.5867 11.3509 7.5 10.9998 7.5C10.6487 7.5 10.3038 7.5867 9.99983 7.75136C9.75262 7.61767 9.47774 7.53513 9.19368 7.50928C8.90962 7.48344 8.62294 7.51489 8.35292 7.60152C8.08289 7.68815 7.83577 7.82796 7.62816 8.01155C7.42055 8.19514 7.25725 8.41826 7.14924 8.66592C7.04123 8.91358 6.99102 9.18005 7.00196 9.44741C7.0129 9.71478 7.08476 9.97685 7.21269 10.216C7.34063 10.4552 7.52168 10.6659 7.74369 10.8341C7.9657 11.0022 8.22352 11.1238 8.49984 11.1908V12.1875C8.36723 12.1875 8.24005 12.2369 8.14628 12.3248C8.05251 12.4127 7.99984 12.5319 7.99984 12.6562C7.99984 12.7806 8.05251 12.8998 8.14628 12.9877C8.24005 13.0756 8.36723 13.125 8.49984 13.125H13.4998C13.6324 13.125 13.7596 13.0756 13.8534 12.9877C13.9472 12.8998 13.9998 12.7806 13.9998 12.6562C13.9998 12.5319 13.9472 12.4127 13.8534 12.3248C13.7596 12.2369 13.6324 12.1875 13.4998 12.1875V11.1908C13.9289 11.0864 14.3089 10.8514 14.5803 10.5229C14.8518 10.1943 14.9993 9.79059 14.9998 9.375ZM12.9998 10.3125C12.8672 10.3125 12.74 10.3619 12.6463 10.4498C12.5525 10.5377 12.4998 10.6569 12.4998 10.7812V12.1875H9.49983V10.7812C9.49983 10.6569 9.44716 10.5377 9.35339 10.4498C9.25962 10.3619 9.13244 10.3125 8.99984 10.3125C8.83768 10.3126 8.67793 10.2758 8.53435 10.2051C8.39076 10.1345 8.26765 10.0322 8.17564 9.90701C8.08362 9.78184 8.02545 9.63757 8.00614 9.48663C7.98683 9.33569 8.00696 9.18262 8.0648 9.0406C8.12264 8.89858 8.21645 8.77188 8.33814 8.67141C8.45984 8.57095 8.60577 8.49973 8.76335 8.4639C8.92094 8.42808 9.08545 8.42872 9.24272 8.46576C9.39998 8.50281 9.54528 8.57515 9.66608 8.67656C9.75786 8.75354 9.87669 8.79609 9.99983 8.79609C10.123 8.79609 10.2418 8.75354 10.3336 8.67656C10.5167 8.52263 10.7539 8.4375 10.9998 8.4375C11.2457 8.4375 11.483 8.52263 11.6661 8.67656C11.7579 8.75354 11.8767 8.79609 11.9998 8.79609C12.123 8.79609 12.2418 8.75354 12.3336 8.67656C12.4544 8.57515 12.5997 8.50281 12.7569 8.46576C12.9142 8.42872 13.0787 8.42808 13.2363 8.4639C13.3939 8.49973 13.5398 8.57095 13.6615 8.67141C13.7832 8.77188 13.877 8.89858 13.9349 9.0406C13.9927 9.18262 14.0128 9.33569 13.9935 9.48663C13.9742 9.63757 13.916 9.78184 13.824 9.90701C13.732 10.0322 13.6089 10.1345 13.4653 10.2051C13.3217 10.2758 13.162 10.3126 12.9998 10.3125Z" fill="black"/>
<path d="M11 9.84375C10.8674 9.84375 10.7402 9.89314 10.6464 9.98104C10.5527 10.069 10.5 10.1882 10.5 10.3125V11.25C10.5 11.3743 10.5527 11.4935 10.6464 11.5815C10.7402 11.6694 10.8674 11.7188 11 11.7188C11.1326 11.7188 11.2598 11.6694 11.3536 11.5815C11.4473 11.4935 11.5 11.3743 11.5 11.25V10.3125C11.5 10.1882 11.4473 10.069 11.3536 9.98104C11.2598 9.89314 11.1326 9.84375 11 9.84375Z" fill="black"/>
</svg>
