<svg width="127" height="127" xmlns="http://www.w3.org/2000/svg">
 <!-- Created with Method Draw - http://github.com/duopixel/Method-Draw/ -->

 <g>
  <title>background</title>
  <rect fill="none" id="canvas_background" height="129" width="129" y="-1" x="-1"/>
  <g display="none" overflow="visible" y="0" x="0" height="100%" width="100%" id="canvasGrid">
   <rect fill="url(#gridpattern)" stroke-width="0" y="2" x="2" height="600" width="800"/>
  </g>
 </g>
 <g>
  <title>Layer 1</title>
  <mask transform="matrix(60.8399806594864,0,0,60.8399806594864,0,0) " id="svg_10">
   <path id="svg_12" d="m29.2133,23.1443l-6.0721,-4.0494c-0.7706,-0.5098 -1.8035,-0.342 -2.3732,0.3854l-1.7688,2.2742c-0.2273,0.2997 -0.6405,0.3866 -0.9693,0.204l-0.3365,-0.1855c-1.1153,-0.608 -2.5031,-1.3648 -5.2991,-4.1619c-2.79614,-2.7971 -3.55452,-4.1859 -4.16246,-5.2992l-0.18448,-0.3364c-0.18519,-0.3288 -0.09989,-0.7438 0.19995,-0.9729l2.27259,-1.76822c0.7272,-0.56974 0.8952,-1.60236 0.386,-2.37317l-4.0494,-6.0721c-0.52182,-0.78493 -1.56873,-1.02056 -2.37656,-0.53495l-2.53913,1.52527c-0.79782,0.46903 -1.38314,1.22864 -1.63324,2.11966c-0.91433,3.3315 -0.22649,9.08111 8.24327,17.55191c6.73756,6.737 11.75326,8.5487 15.20076,8.5487c0.7934,0.0034 1.5837,-0.0998 2.3497,-0.3069c0.8912,-0.2498 1.6509,-0.8352 2.1196,-1.6332l1.5268,-2.5376c0.4863,-0.808 0.2508,-1.8556 -0.5344,-2.3777zm-0.327,1.8647l-1.5233,2.5391c-0.3365,0.576 -0.883,0.9995 -1.5248,1.1819c-3.0755,0.8443 -8.4487,0.145 -16.58,-7.9864c-8.13132,-8.1313 -8.83065,-13.50399 -7.98626,-16.58c0.18255,-0.64256 0.60659,-1.18968 1.1833,-1.52678l2.53914,-1.52327c0.35051,-0.21091 0.8049,-0.10868 1.03133,0.23194l2.19969,3.3025l1.8462,2.76908c0.2211,0.33434 0.1485,0.78246 -0.16692,1.02986l-2.27316,1.76817c-0.69177,0.529 -0.88932,1.4861 -0.4634,2.2457l0.1805,0.328c0.63892,1.1718 1.43328,2.6296 4.33338,5.5292c2.9001,2.8995 4.3574,3.694 5.5286,4.3328l0.3285,0.181c0.7595,0.4258 1.7167,0.2284 2.2457,-0.4634l1.7682,-2.2732c0.2474,-0.3152 0.6954,-0.3878 1.0298,-0.1669l6.0716,4.0494c0.3409,0.2262 0.4431,0.6808 0.2319,1.0313z"/>
  </mask>
  <mask transform="matrix(0.07111111852857821,0,0,0.07111111852857821,0,0) " id="svg_22">
   <path id="svg_24" d="m29.2133,23.1443l-6.0721,-4.0494c-0.7706,-0.5098 -1.8035,-0.342 -2.3732,0.3854l-1.7688,2.2742c-0.2273,0.2997 -0.6405,0.3866 -0.9693,0.204l-0.3365,-0.1855c-1.1153,-0.608 -2.5031,-1.3648 -5.2991,-4.1619c-2.79614,-2.7971 -3.55452,-4.1859 -4.16246,-5.2992l-0.18448,-0.3364c-0.18519,-0.3288 -0.09989,-0.7438 0.19995,-0.9729l2.27259,-1.76822c0.7272,-0.56974 0.8952,-1.60236 0.386,-2.37317l-4.0494,-6.0721c-0.52182,-0.78493 -1.56873,-1.02056 -2.37656,-0.53495l-2.53913,1.52527c-0.79782,0.46903 -1.38314,1.22864 -1.63324,2.11966c-0.91433,3.3315 -0.22649,9.08111 8.24327,17.55191c6.73756,6.737 11.75326,8.5487 15.20076,8.5487c0.7934,0.0034 1.5837,-0.0998 2.3497,-0.3069c0.8912,-0.2498 1.6509,-0.8352 2.1196,-1.6332l1.5268,-2.5376c0.4863,-0.808 0.2508,-1.8556 -0.5344,-2.3777zm-0.327,1.8647l-1.5233,2.5391c-0.3365,0.576 -0.883,0.9995 -1.5248,1.1819c-3.0755,0.8443 -8.4487,0.145 -16.58,-7.9864c-8.13132,-8.1313 -8.83065,-13.50399 -7.98626,-16.58c0.18255,-0.64256 0.60659,-1.18968 1.1833,-1.52678l2.53914,-1.52327c0.35051,-0.21091 0.8049,-0.10868 1.03133,0.23194l2.19969,3.3025l1.8462,2.76908c0.2211,0.33434 0.1485,0.78246 -0.16692,1.02986l-2.27316,1.76817c-0.69177,0.529 -0.88932,1.4861 -0.4634,2.2457l0.1805,0.328c0.63892,1.1718 1.43328,2.6296 4.33338,5.5292c2.9001,2.8995 4.3574,3.694 5.5286,4.3328l0.3285,0.181c0.7595,0.4258 1.7167,0.2284 2.2457,-0.4634l1.7682,-2.2732c0.2474,-0.3152 0.6954,-0.3878 1.0298,-0.1669l6.0716,4.0494c0.3409,0.2262 0.4431,0.6808 0.2319,1.0313z"/>
  </mask>
  <mask transform="matrix(22.29939272374395,0,0,22.29939272374395,0,0) " id="svg_34">
   <path id="svg_36" d="m29.2133,23.1443l-6.0721,-4.0494c-0.7706,-0.5098 -1.8035,-0.342 -2.3732,0.3854l-1.7688,2.2742c-0.2273,0.2997 -0.6405,0.3866 -0.9693,0.204l-0.3365,-0.1855c-1.1153,-0.608 -2.5031,-1.3648 -5.2991,-4.1619c-2.79614,-2.7971 -3.55452,-4.1859 -4.16246,-5.2992l-0.18448,-0.3364c-0.18519,-0.3288 -0.09989,-0.7438 0.19995,-0.9729l2.27259,-1.76822c0.7272,-0.56974 0.8952,-1.60236 0.386,-2.37317l-4.0494,-6.0721c-0.52182,-0.78493 -1.56873,-1.02056 -2.37656,-0.53495l-2.53913,1.52527c-0.79782,0.46903 -1.38314,1.22864 -1.63324,2.11966c-0.91433,3.3315 -0.22649,9.08111 8.24327,17.55191c6.73756,6.737 11.75326,8.5487 15.20076,8.5487c0.7934,0.0034 1.5837,-0.0998 2.3497,-0.3069c0.8912,-0.2498 1.6509,-0.8352 2.1196,-1.6332l1.5268,-2.5376c0.4863,-0.808 0.2508,-1.8556 -0.5344,-2.3777zm-0.327,1.8647l-1.5233,2.5391c-0.3365,0.576 -0.883,0.9995 -1.5248,1.1819c-3.0755,0.8443 -8.4487,0.145 -16.58,-7.9864c-8.13132,-8.1313 -8.83065,-13.50399 -7.98626,-16.58c0.18255,-0.64256 0.60659,-1.18968 1.1833,-1.52678l2.53914,-1.52327c0.35051,-0.21091 0.8049,-0.10868 1.03133,0.23194l2.19969,3.3025l1.8462,2.76908c0.2211,0.33434 0.1485,0.78246 -0.16692,1.02986l-2.27316,1.76817c-0.69177,0.529 -0.88932,1.4861 -0.4634,2.2457l0.1805,0.328c0.63892,1.1718 1.43328,2.6296 4.33338,5.5292c2.9001,2.8995 4.3574,3.694 5.5286,4.3328l0.3285,0.181c0.7595,0.4258 1.7167,0.2284 2.2457,-0.4634l1.7682,-2.2732c0.2474,-0.3152 0.6954,-0.3878 1.0298,-0.1669l6.0716,4.0494c0.3409,0.2262 0.4431,0.6808 0.2319,1.0313z"/>
  </mask>
  <mask transform="matrix(41.89005072708119,0,0,41.89005072708119,0,0) " id="svg_54">
   <path id="svg_56" d="m29.2133,23.1443l-6.0721,-4.0494c-0.7706,-0.5098 -1.8035,-0.342 -2.3732,0.3854l-1.7688,2.2742c-0.2273,0.2997 -0.6405,0.3866 -0.9693,0.204l-0.3365,-0.1855c-1.1153,-0.608 -2.5031,-1.3648 -5.2991,-4.1619c-2.79614,-2.7971 -3.55452,-4.1859 -4.16246,-5.2992l-0.18448,-0.3364c-0.18519,-0.3288 -0.09989,-0.7438 0.19995,-0.9729l2.27259,-1.76822c0.7272,-0.56974 0.8952,-1.60236 0.386,-2.37317l-4.0494,-6.0721c-0.52182,-0.78493 -1.56873,-1.02056 -2.37656,-0.53495l-2.53913,1.52527c-0.79782,0.46903 -1.38314,1.22864 -1.63324,2.11966c-0.91433,3.3315 -0.22649,9.08111 8.24327,17.55191c6.73756,6.737 11.75326,8.5487 15.20076,8.5487c0.7934,0.0034 1.5837,-0.0998 2.3497,-0.3069c0.8912,-0.2498 1.6509,-0.8352 2.1196,-1.6332l1.5268,-2.5376c0.4863,-0.808 0.2508,-1.8556 -0.5344,-2.3777zm-0.327,1.8647l-1.5233,2.5391c-0.3365,0.576 -0.883,0.9995 -1.5248,1.1819c-3.0755,0.8443 -8.4487,0.145 -16.58,-7.9864c-8.13132,-8.1313 -8.83065,-13.50399 -7.98626,-16.58c0.18255,-0.64256 0.60659,-1.18968 1.1833,-1.52678l2.53914,-1.52327c0.35051,-0.21091 0.8049,-0.10868 1.03133,0.23194l2.19969,3.3025l1.8462,2.76908c0.2211,0.33434 0.1485,0.78246 -0.16692,1.02986l-2.27316,1.76817c-0.69177,0.529 -0.88932,1.4861 -0.4634,2.2457l0.1805,0.328c0.63892,1.1718 1.43328,2.6296 4.33338,5.5292c2.9001,2.8995 4.3574,3.694 5.5286,4.3328l0.3285,0.181c0.7595,0.4258 1.7167,0.2284 2.2457,-0.4634l1.7682,-2.2732c0.2474,-0.3152 0.6954,-0.3878 1.0298,-0.1669l6.0716,4.0494c0.3409,0.2262 0.4431,0.6808 0.2319,1.0313z"/>
  </mask>
  <mask transform="matrix(10.47251113866514,0,0,10.47251113866514,0,0) " id="svg_66">
   <path id="svg_68" d="m29.2133,23.1443l-6.0721,-4.0494c-0.7706,-0.5098 -1.8035,-0.342 -2.3732,0.3854l-1.7688,2.2742c-0.2273,0.2997 -0.6405,0.3866 -0.9693,0.204l-0.3365,-0.1855c-1.1153,-0.608 -2.5031,-1.3648 -5.2991,-4.1619c-2.79614,-2.7971 -3.55452,-4.1859 -4.16246,-5.2992l-0.18448,-0.3364c-0.18519,-0.3288 -0.09989,-0.7438 0.19995,-0.9729l2.27259,-1.76822c0.7272,-0.56974 0.8952,-1.60236 0.386,-2.37317l-4.0494,-6.0721c-0.52182,-0.78493 -1.56873,-1.02056 -2.37656,-0.53495l-2.53913,1.52527c-0.79782,0.46903 -1.38314,1.22864 -1.63324,2.11966c-0.91433,3.3315 -0.22649,9.08111 8.24327,17.55191c6.73756,6.737 11.75326,8.5487 15.20076,8.5487c0.7934,0.0034 1.5837,-0.0998 2.3497,-0.3069c0.8912,-0.2498 1.6509,-0.8352 2.1196,-1.6332l1.5268,-2.5376c0.4863,-0.808 0.2508,-1.8556 -0.5344,-2.3777zm-0.327,1.8647l-1.5233,2.5391c-0.3365,0.576 -0.883,0.9995 -1.5248,1.1819c-3.0755,0.8443 -8.4487,0.145 -16.58,-7.9864c-8.13132,-8.1313 -8.83065,-13.50399 -7.98626,-16.58c0.18255,-0.64256 0.60659,-1.18968 1.1833,-1.52678l2.53914,-1.52327c0.35051,-0.21091 0.8049,-0.10868 1.03133,0.23194l2.19969,3.3025l1.8462,2.76908c0.2211,0.33434 0.1485,0.78246 -0.16692,1.02986l-2.27316,1.76817c-0.69177,0.529 -0.88932,1.4861 -0.4634,2.2457l0.1805,0.328c0.63892,1.1718 1.43328,2.6296 4.33338,5.5292c2.9001,2.8995 4.3574,3.694 5.5286,4.3328l0.3285,0.181c0.7595,0.4258 1.7167,0.2284 2.2457,-0.4634l1.7682,-2.2732c0.2474,-0.3152 0.6954,-0.3878 1.0298,-0.1669l6.0716,4.0494c0.3409,0.2262 0.4431,0.6808 0.2319,1.0313z"/>
  </mask>
  <g stroke="null" id="svg_74">
   <path stroke-width="0" stroke="null" id="svg_69" fill="#ffffff" d="m122.56851,97.22802l-25.12459,-16.75524c-3.18852,-2.1094 -7.46236,-1.4151 -9.81961,1.59467l-7.31878,9.40998c-0.9405,1.24007 -2.6502,1.59964 -4.01068,0.84409l-1.39234,-0.76755c-4.61479,-2.51573 -10.3571,-5.64715 -21.92614,-17.22073c-11.56962,-11.57359 -14.70757,-17.32004 -17.22305,-21.92655l-0.76332,-1.39193c-0.76626,-1.36048 -0.41332,-3.07763 0.82734,-4.02558l9.40332,-7.31638c3.00894,-2.35742 3.70408,-6.6301 1.59716,-9.81949l-16.75524,-25.12459c-2.15914,-3.24781 -6.49095,-4.22278 -9.83352,-2.21347l-10.50618,6.31112c-3.30115,1.94071 -5.72303,5.08376 -6.75787,8.77054c-3.78323,13.78478 -0.93715,37.575 34.10826,72.62471c27.87807,27.87575 48.63158,35.37204 62.89633,35.37204c3.28286,0.01407 6.55289,-0.41294 9.72238,-1.26986c3.68753,-1.0336 6.83094,-3.45582 8.77029,-6.75771l6.31746,-10.49985c2.01217,-3.34327 1.03774,-7.67793 -2.21119,-9.83823zm-1.35303,7.71559l-6.30297,10.50606c-1.39234,2.38332 -3.6536,4.13564 -6.30918,4.89036c-12.72553,3.49347 -34.95827,0.59997 -68.60323,-33.0454c-33.64504,-33.64496 -36.53867,-55.87559 -33.04482,-68.60323c0.75534,-2.65873 2.50989,-4.92255 4.89615,-6.31737l10.50622,-6.30285c1.45031,-0.87268 3.33044,-0.44969 4.26734,0.9597l9.10168,13.66479l7.63904,11.45765c0.91485,1.3834 0.61445,3.23759 -0.69067,4.26126l-9.40568,7.31617c-2.86234,2.18885 -3.67975,6.14905 -1.91741,9.29205l0.74686,1.35717c2.64367,4.84857 5.9305,10.88052 17.93027,22.87822c11.99977,11.99729 18.02966,15.2847 22.87574,17.92787l1.35924,0.74893c3.14259,1.76184 7.10321,0.94505 9.29205,-1.91741l7.3163,-9.40584c1.02367,-1.30421 2.87736,-1.6046 4.26101,-0.69058l25.12252,16.75524c1.41055,0.93595 1.83342,2.81695 0.95953,4.26722z"/>
   <path stroke="black" id="svg_71" stroke-width="0" fill="#ffffff" d="m112.07413,58.44003c0,1.14242 -0.92602,2.06844 -2.06844,2.06844c-1.14118,0 -2.06596,-0.92354 -2.06844,-2.06389l2.06844,-0.00207l2.06844,-0.00248zm0,0c0,-0.00166 0,-0.00331 0,-0.00455c-0.00538,-4.39797 -0.73237,-8.62671 -2.06844,-12.5745c-3.91841,-11.57665 -13.07806,-20.73621 -24.65454,-24.65479c-3.94779,-1.33636 -8.17694,-2.06314 -12.57491,-2.06848c-0.00124,0 -0.0029,0 -0.00455,0m39.30245,39.30232l-2.06844,0l-2.06844,0c-0.02193,-19.41227 -15.75309,-35.1438 -35.16557,-35.1654l0,-2.06844l0,-2.06848m0,0c-1.14242,0 -2.06844,0.92598 -2.06844,2.06848c0,1.14093 0.92354,2.066 2.06389,2.06844l0.00248,-2.06844l0.00207,-2.06848z"/>
   <path stroke="black" id="svg_72" stroke-width="0" fill="#ffffff" d="m99.66266,58.43879c0,1.14242 -0.92602,2.06844 -2.06844,2.06844c-1.14035,0 -2.06596,-0.92312 -2.06844,-2.06348l2.06844,-0.00248l2.06844,-0.00248zm0,0c0,-0.00166 0,-0.00331 0,-0.00497c-0.00455,-3.66063 -0.74024,-7.15038 -2.06844,-10.33062c-2.72758,-6.53195 -7.95475,-11.75929 -14.48654,-14.48695c-3.18024,-1.32812 -6.66999,-2.0636 -10.33103,-2.06844c-0.00166,0 -0.00331,0 -0.00497,0m26.89097,26.89097l-2.06844,0l-2.06844,0c-0.0149,-12.56043 -10.19325,-22.73928 -22.75409,-22.75405l0,-2.06848l0,-2.06844m0,0c-1.14242,0 -2.06844,0.92598 -2.06844,2.06844c0,1.14089 0.92354,2.06592 2.06389,2.06848l0.00207,-2.06848l0.00248,-2.06844z"/>
   <path stroke="black" id="svg_73" stroke-width="0" fill="#ffffff" d="m87.2516,58.43961c0,1.14242 -0.92643,2.06844 -2.06844,2.06844c-1.14077,0 -2.06596,-0.92354 -2.06844,-2.06348l2.06844,-0.00248l2.06844,-0.00248zm0,0c0,-0.00166 0,-0.00331 0,-0.00497c-0.00414,-2.72303 -0.75886,-5.2702 -2.06844,-7.44539c-1.22311,-2.0312 -2.92991,-3.73801 -4.96111,-4.9607c-2.17519,-1.31 -4.72195,-2.06472 -7.44539,-2.06844c-0.00166,0 -0.00331,0 -0.00497,0m14.47991,14.4795l-2.06844,0l-2.06844,0c-0.00703,-5.70921 -4.63382,-10.336 -10.34303,-10.34262l0,-2.06844l0,-2.06844m0,0c-1.14242,0 -2.06844,0.92561 -2.06844,2.06844c0,1.14077 0.92354,2.06596 2.06389,2.06844l0.00248,-2.06844l0.00207,-2.06844z"/>
  </g>
 </g>
</svg>