<svg width="30" height="30" viewBox="0 0 30 30" fill="none" xmlns="http://www.w3.org/2000/svg">
<mask id="path-1-inside-1" fill="white">
<path d="M29.2133 23.1443L23.1412 19.0949C22.3706 18.5851 21.3377 18.7529 20.768 19.4803L18.9992 21.7545C18.7719 22.0542 18.3587 22.1411 18.0299 21.9585L17.6934 21.773C16.5781 21.165 15.1903 20.4082 12.3943 17.6111C9.59816 14.814 8.83978 13.4252 8.23184 12.3119L8.04736 11.9755C7.86217 11.6467 7.94747 11.2317 8.24731 11.0026L10.5199 9.23438C11.2471 8.66464 11.4151 7.63202 10.9059 6.86121L6.8565 0.789105C6.33468 0.00418283 5.28777 -0.231446 4.47994 0.254165L1.94081 1.77943C1.14299 2.24846 0.557672 3.00807 0.307572 3.89909C-0.606764 7.23059 0.0810821 12.9802 8.55084 21.451C15.2884 28.188 20.3041 29.9997 23.7516 29.9997C24.545 30.0031 25.3353 29.8999 26.1013 29.6928C26.9925 29.443 27.7522 28.8576 28.2209 28.0596L29.7477 25.522C30.234 24.714 29.9985 23.6664 29.2133 23.1443ZM28.8863 25.009L27.363 27.5481C27.0265 28.1241 26.48 28.5476 25.8382 28.73C22.7627 29.5743 17.3895 28.875 9.2582 20.7436C1.12688 12.6123 0.427554 7.23961 1.27194 4.1636C1.45449 3.52104 1.87853 2.97392 2.45524 2.63682L4.99438 1.11355C5.34489 0.902643 5.79928 1.00487 6.02571 1.34549L8.2254 4.64799L10.0716 7.41707C10.2927 7.75141 10.2201 8.19953 9.90468 8.44693L7.63152 10.2151C6.93975 10.7441 6.7422 11.7012 7.16812 12.4608L7.34862 12.7888C7.98754 13.9606 8.7819 15.4184 11.682 18.318C14.5821 21.2175 16.0394 22.012 17.2106 22.6508L17.5391 22.8318C18.2986 23.2576 19.2558 23.0602 19.7848 22.3684L21.553 20.0952C21.8004 19.78 22.2484 19.7074 22.5828 19.9283L28.6544 23.9777C28.9953 24.2039 29.0975 24.6585 28.8863 25.009Z"/>
</mask>
<path d="M29.2133 23.1443L23.1412 19.0949C22.3706 18.5851 21.3377 18.7529 20.768 19.4803L18.9992 21.7545C18.7719 22.0542 18.3587 22.1411 18.0299 21.9585L17.6934 21.773C16.5781 21.165 15.1903 20.4082 12.3943 17.6111C9.59816 14.814 8.83978 13.4252 8.23184 12.3119L8.04736 11.9755C7.86217 11.6467 7.94747 11.2317 8.24731 11.0026L10.5199 9.23438C11.2471 8.66464 11.4151 7.63202 10.9059 6.86121L6.8565 0.789105C6.33468 0.00418283 5.28777 -0.231446 4.47994 0.254165L1.94081 1.77943C1.14299 2.24846 0.557672 3.00807 0.307572 3.89909C-0.606764 7.23059 0.0810821 12.9802 8.55084 21.451C15.2884 28.188 20.3041 29.9997 23.7516 29.9997C24.545 30.0031 25.3353 29.8999 26.1013 29.6928C26.9925 29.443 27.7522 28.8576 28.2209 28.0596L29.7477 25.522C30.234 24.714 29.9985 23.6664 29.2133 23.1443ZM28.8863 25.009L27.363 27.5481C27.0265 28.1241 26.48 28.5476 25.8382 28.73C22.7627 29.5743 17.3895 28.875 9.2582 20.7436C1.12688 12.6123 0.427554 7.23961 1.27194 4.1636C1.45449 3.52104 1.87853 2.97392 2.45524 2.63682L4.99438 1.11355C5.34489 0.902643 5.79928 1.00487 6.02571 1.34549L8.2254 4.64799L10.0716 7.41707C10.2927 7.75141 10.2201 8.19953 9.90468 8.44693L7.63152 10.2151C6.93975 10.7441 6.7422 11.7012 7.16812 12.4608L7.34862 12.7888C7.98754 13.9606 8.7819 15.4184 11.682 18.318C14.5821 21.2175 16.0394 22.012 17.2106 22.6508L17.5391 22.8318C18.2986 23.2576 19.2558 23.0602 19.7848 22.3684L21.553 20.0952C21.8004 19.78 22.2484 19.7074 22.5828 19.9283L28.6544 23.9777C28.9953 24.2039 29.0975 24.6585 28.8863 25.009Z" fill="black"/>
<path d="M29.2133 23.1443L10.904 50.5992L10.9231 50.6119L10.9422 50.6246L29.2133 23.1443ZM23.1412 19.0949L41.4504 -8.36L41.3993 -8.39407L41.3481 -8.42795L23.1412 19.0949ZM20.768 19.4803L-5.21323 -0.866092L-5.24714 -0.822793L-5.2809 -0.779381L20.768 19.4803ZM18.9992 21.7545L-7.04964 1.49477L-7.17294 1.6533L-7.2943 1.81332L18.9992 21.7545ZM18.0299 21.9585L34.0548 -6.88945L34.0083 -6.91529L33.9617 -6.94097L18.0299 21.9585ZM17.6934 21.773L33.6253 -7.12645L33.5562 -7.16453L33.4869 -7.20228L17.6934 21.773ZM8.23184 12.3119L37.1949 -3.50398L37.1812 -3.52903L37.1675 -3.55405L8.23184 12.3119ZM8.04736 11.9755L36.983 -3.89051L36.8925 -4.05563L36.8 -4.2197L8.04736 11.9755ZM8.24731 11.0026L28.2842 37.2232L28.3984 37.136L28.5117 37.0478L8.24731 11.0026ZM10.5199 9.23438L30.7843 35.2796L30.8286 35.2452L30.8727 35.2106L10.5199 9.23438ZM10.9059 6.86121L38.4409 -11.3273L38.401 -11.3878L38.3608 -11.448L10.9059 6.86121ZM6.8565 0.789105L-20.6248 19.0587L-20.6116 19.0785L-20.5984 19.0984L6.8565 0.789105ZM4.47994 0.254165L21.4729 28.5427L21.4818 28.5373L4.47994 0.254165ZM1.94081 1.77943L18.6653 30.2274L18.7999 30.1483L18.9338 30.0679L1.94081 1.77943ZM0.307572 3.89909L-31.4646 -5.01899L-31.4904 -4.927L-31.5157 -4.83486L0.307572 3.89909ZM8.55084 21.451L-14.7851 44.7841L-14.7828 44.7864L8.55084 21.451ZM23.7516 29.9997L23.8929 -2.99996L23.8223 -3.00027H23.7516V29.9997ZM26.1013 29.6928L34.7147 61.5489L34.8615 61.5092L35.0081 61.4681L26.1013 29.6928ZM28.2209 28.0596L-0.0555656 11.0467L-0.145465 11.1961L-0.233781 11.3464L28.2209 28.0596ZM29.7477 25.522L1.47382 8.50473L1.47122 8.50905L29.7477 25.522ZM28.8863 25.009L0.622017 7.97577L0.604976 8.00405L0.587992 8.03236L28.8863 25.009ZM27.363 27.5481L-0.935278 10.5715L-1.03333 10.7349L-1.12948 10.8995L27.363 27.5481ZM25.8382 28.73L34.5751 60.5524L34.7156 60.5138L34.8558 60.474L25.8382 28.73ZM1.27194 4.1636L-30.4719 -4.85478L-30.512 -4.71355L-30.5508 -4.57198L1.27194 4.1636ZM2.45524 2.63682L19.1082 31.1268L19.2706 31.0319L19.4319 30.9351L2.45524 2.63682ZM4.99438 1.11355L21.971 29.4118L21.9896 29.4007L22.0082 29.3895L4.99438 1.11355ZM6.02571 1.34549L-21.4559 19.6146L-21.4477 19.6269L-21.4395 19.6392L6.02571 1.34549ZM8.2254 4.64799L-19.2398 22.9417L-19.2356 22.9481L-19.2314 22.9544L8.2254 4.64799ZM10.0716 7.41707L37.5974 -10.7855L37.563 -10.8375L37.5284 -10.8894L10.0716 7.41707ZM9.90468 8.44693L30.1662 34.4944L30.2187 34.4536L30.2711 34.4125L9.90468 8.44693ZM7.63152 10.2151L27.6765 36.4296L27.7851 36.3466L27.893 36.2627L7.63152 10.2151ZM7.16812 12.4608L36.0787 -3.4508L36.0159 -3.56483L35.9523 -3.67835L7.16812 12.4608ZM7.34862 12.7888L36.3217 -3.00866L36.2906 -3.06581L36.2592 -3.12284L7.34862 12.7888ZM11.682 18.318L-11.6507 41.6544L-11.6504 41.6546L11.682 18.318ZM17.2106 22.6508L33.1365 -6.25189L33.0746 -6.28603L33.0125 -6.3199L17.2106 22.6508ZM17.5391 22.8318L33.6775 -5.95276L33.5714 -6.01224L33.4649 -6.07092L17.5391 22.8318ZM19.7848 22.3684L-6.26275 2.10691L-6.3467 2.21483L-6.42975 2.32344L19.7848 22.3684ZM21.553 20.0952L-4.40474 -0.281166L-4.44977 -0.223807L-4.49454 -0.16625L21.553 20.0952ZM22.5828 19.9283L40.8932 -7.5259L40.8305 -7.56773L40.7676 -7.60928L22.5828 19.9283ZM28.6544 23.9777L10.344 51.4318L10.3739 51.4517L10.4039 51.4716L28.6544 23.9777ZM47.5225 -4.3106L41.4504 -8.36L4.83189 46.5498L10.904 50.5992L47.5225 -4.3106ZM41.3481 -8.42795C26.2294 -18.4293 5.96359 -15.1383 -5.21323 -0.866092L46.7492 39.8267C36.7118 52.644 18.5117 55.5996 4.93419 46.6177L41.3481 -8.42795ZM-5.2809 -0.779381L-7.04964 1.49477L45.0481 42.0142L46.8169 39.74L-5.2809 -0.779381ZM-7.2943 1.81332C2.4041 -10.9746 20.0283 -14.6811 34.0548 -6.88945L2.00499 50.8064C16.6891 58.9634 35.1398 55.0829 45.2928 41.6956L-7.2943 1.81332ZM33.9617 -6.94097L33.6253 -7.12645L1.76164 50.6724L2.09809 50.8579L33.9617 -6.94097ZM33.4869 -7.20228C33.1789 -7.3702 33.4903 -7.2052 33.8774 -6.97085C34.3317 -6.69583 34.7941 -6.38898 35.2278 -6.06998C36.0544 -5.46199 36.2726 -5.17941 35.7329 -5.71926L-10.9444 40.9415C-5.66855 46.2192 -1.6621 48.8067 1.89996 50.7482L33.4869 -7.20228ZM35.7329 -5.71926C35.192 -6.26044 35.4699 -6.04664 36.073 -5.22689C36.3894 -4.79688 36.694 -4.33822 36.9671 -3.88759C37.1996 -3.50401 37.3636 -3.19501 37.1949 -3.50398L-20.7312 28.1278C-18.7956 31.6723 -16.2139 35.6701 -10.9444 40.9415L35.7329 -5.71926ZM37.1675 -3.55405L36.983 -3.89051L-20.8883 27.8414L-20.7038 28.1779L37.1675 -3.55405ZM36.8 -4.2197C44.6904 9.78866 41.0542 27.4649 28.2842 37.2232L-11.7896 -15.2181C-25.1592 -5.00145 -28.966 13.5047 -20.7053 28.1706L36.8 -4.2197ZM28.5117 37.0478L30.7843 35.2796L-9.74446 -16.8109L-12.0171 -15.0426L28.5117 37.0478ZM30.8727 35.2106C45.1319 24.0383 48.4263 3.78928 38.4409 -11.3273L-16.6291 25.0498C-25.5962 11.4748 -22.6377 -6.70903 -9.83285 -16.7418L30.8727 35.2106ZM38.3608 -11.448L34.3114 -17.5202L-20.5984 19.0984L-16.549 25.1705L38.3608 -11.448ZM34.3378 -17.4805C24.048 -32.9585 3.40523 -37.6033 -12.5219 -28.029L21.4818 28.5373C7.17031 37.1404 -11.3786 32.9669 -20.6248 19.0587L34.3378 -17.4805ZM-12.513 -28.0343L-15.0521 -26.5091L18.9338 30.0679L21.4729 28.5427L-12.513 -28.0343ZM-14.7837 -26.6686C-22.9312 -21.8787 -28.9098 -14.1206 -31.4646 -5.01899L32.0797 12.8172C30.0252 20.1368 25.2172 26.3756 18.6653 30.2274L-14.7837 -26.6686ZM-31.5157 -4.83486C-36.8781 14.7038 -27.4322 32.1355 -14.7851 44.7841L31.8867 -1.88215C29.807 -3.96217 30.6984 -3.73925 31.7243 -1.06274C32.9439 2.11914 33.6639 7.04703 32.1308 12.633L-31.5157 -4.83486ZM-14.7828 44.7864C-4.84402 54.7244 8.07988 62.9997 23.7516 62.9997V-3.00027C28.0075 -3.00027 31.0171 -1.84322 32.4354 -1.11635C33.7058 -0.465309 33.4898 -0.279185 31.8845 -1.88444L-14.7828 44.7864ZM23.6103 62.9994C27.3598 63.0155 31.0947 62.5277 34.7147 61.5489L17.4879 -2.16328C19.576 -2.72786 21.7303 -3.00923 23.8929 -2.99996L23.6103 62.9994ZM35.0081 61.4681C44.1177 58.9146 51.8839 52.9308 56.6757 44.7727L-0.233781 11.3464C3.62049 4.7844 9.86729 -0.028638 17.1945 -2.08249L35.0081 61.4681ZM56.4975 45.0725L58.0242 42.5349L1.47122 8.50905L-0.0555656 11.0467L56.4975 45.0725ZM58.0216 42.5392C67.6089 26.6101 62.9661 5.95744 47.4843 -4.33606L10.9422 50.6246C-2.96906 41.3753 -7.14078 22.8178 1.47382 8.50473L58.0216 42.5392ZM0.587992 8.03236L-0.935278 10.5715L55.6613 44.5248L57.1846 41.9856L0.587992 8.03236ZM-1.12948 10.8995C2.83377 4.11678 9.26659 -0.868177 16.8207 -3.01407L34.8558 60.474C43.6935 57.9635 51.2191 52.1315 55.8555 44.1968L-1.12948 10.8995ZM17.1014 -3.09249C23.1166 -4.74396 28.3371 -3.86783 31.5848 -2.5829C34.3134 -1.50332 34.6105 -0.573102 32.5927 -2.59088L-14.0763 44.0782C-2.22543 55.9291 14.8685 65.9628 34.5751 60.5524L17.1014 -3.09249ZM32.5927 -2.59088C30.5747 -4.60892 31.505 -4.31173 32.5847 -1.58282C33.87 1.66577 34.7455 6.88568 33.0947 12.8992L-30.5508 -4.57198C-35.9603 15.134 -25.9277 32.2268 -14.0763 44.0782L32.5927 -2.59088ZM33.0157 13.182C30.87 20.7349 25.8864 27.1648 19.1082 31.1268L-14.1977 -25.8532C-22.1293 -21.217 -27.961 -13.6928 -30.4719 -4.85478L33.0157 13.182ZM19.4319 30.9351L21.971 29.4118L-11.9823 -27.1848L-14.5214 -25.6615L19.4319 30.9351ZM22.0082 29.3895C7.23593 38.2781 -11.9131 33.9696 -21.4559 19.6146L33.5073 -16.9236C23.5117 -31.9598 3.45385 -36.4728 -12.0194 -27.1624L22.0082 29.3895ZM-21.4395 19.6392L-19.2398 22.9417L35.6906 -13.6458L33.4909 -16.9483L-21.4395 19.6392ZM-19.2314 22.9544L-17.3851 25.7235L37.5284 -10.8894L35.6822 -13.6585L-19.2314 22.9544ZM-17.4541 25.6196C-26.7168 11.6127 -23.6722 -7.15684 -10.4617 -17.5186L30.2711 34.4125C44.1124 23.5559 47.3023 3.89012 37.5974 -10.7855L-17.4541 25.6196ZM-10.3568 -17.6006L-12.63 -15.8324L27.893 36.2627L30.1662 34.4944L-10.3568 -17.6006ZM-12.4134 -15.9994C-26.1505 -5.49526 -30.0751 13.5133 -21.616 28.6L35.9523 -3.67835C43.5595 9.8891 40.03 26.9835 27.6765 36.4296L-12.4134 -15.9994ZM-21.7424 28.3725L-21.5619 28.7004L36.2592 -3.12284L36.0787 -3.4508L-21.7424 28.3725ZM-21.6245 28.5862C-19.6778 32.1565 -17.0621 36.2439 -11.6507 41.6544L35.0146 -5.01842C34.4383 -5.59461 34.6897 -5.41211 35.2716 -4.61928C35.5758 -4.20473 35.868 -3.76328 36.1278 -3.33344C36.3465 -2.97174 36.4999 -2.68193 36.3217 -3.00866L-21.6245 28.5862ZM-11.6504 41.6546C-6.24257 47.0615 -2.159 49.6755 1.40883 51.6215L33.0125 -6.3199C32.6861 -6.49793 32.9754 -6.34476 33.3366 -6.12635C33.7658 -5.86681 34.2064 -5.57514 34.62 -5.27158C35.4109 -4.69112 35.5919 -4.44124 35.0144 -5.01866L-11.6504 41.6546ZM1.28478 51.5535L1.61321 51.7345L33.4649 -6.07092L33.1365 -6.25189L1.28478 51.5535ZM1.40063 51.6163C16.4854 60.0738 35.4941 56.1518 45.9993 42.4133L-6.42975 2.32344C3.01745 -10.0315 20.1118 -13.5585 33.6775 -5.95276L1.40063 51.6163ZM45.8323 42.6299L47.6005 40.3567L-4.49454 -0.16625L-6.26275 2.10691L45.8323 42.6299ZM47.5107 40.4716C37.1462 53.675 18.3925 56.7072 4.39812 47.4658L40.7676 -7.60928C26.1042 -17.2924 6.45467 -14.1151 -4.40474 -0.281166L47.5107 40.4716ZM4.27247 47.3824L10.344 51.4318L46.9648 -3.4765L40.8932 -7.5259L4.27247 47.3824ZM10.4039 51.4716C-3.97522 41.9267 -8.28356 22.7533 0.622017 7.97577L57.1506 42.0422C66.4785 26.5637 61.9657 6.48108 46.905 -3.5163L10.4039 51.4716Z" fill="black" mask="url(#path-1-inside-1)"/>
<path d="M26.498 13.5015C26.498 13.7776 26.2742 14.0014 25.9981 14.0014C25.7223 14.0014 25.4988 13.7782 25.4982 13.5026L25.9981 13.5021L26.498 13.5015ZM26.498 13.5015C26.498 13.5011 26.498 13.5007 26.498 13.5004C26.4967 12.4375 26.321 11.4155 25.9981 10.4614C25.0511 7.66356 22.8374 5.44988 20.0396 4.50284C19.0855 4.17987 18.0634 4.00422 17.0005 4.00293C17.0002 4.00293 16.9998 4.00293 16.9994 4.00293M26.498 13.5015H25.9981H25.4982C25.4929 8.80995 21.691 5.00796 16.9994 5.00274V4.50284V4.00293M16.9994 4.00293C16.7233 4.00293 16.4995 4.22672 16.4995 4.50284C16.4995 4.77858 16.7227 5.00215 16.9983 5.00274L16.9989 4.50284L16.9994 4.00293Z" fill="black" stroke="black" stroke-width="33"/>
<path d="M23.4984 13.5012C23.4984 13.7773 23.2746 14.0011 22.9985 14.0011C22.7229 14.0011 22.4992 13.778 22.4986 13.5024L22.9985 13.5018L23.4984 13.5012ZM23.4984 13.5012C23.4984 13.5008 23.4984 13.5004 23.4984 13.5C23.4973 12.6153 23.3195 11.7719 22.9985 11.0033C22.3393 9.42466 21.076 8.16132 19.4974 7.5021C18.7288 7.18112 17.8854 7.00337 17.0006 7.0022C17.0002 7.0022 16.9998 7.0022 16.9994 7.0022M23.4984 13.5012H22.9985H22.4986C22.495 10.4656 20.0351 8.00558 16.9994 8.00201V7.5021V7.0022M16.9994 7.0022C16.7233 7.0022 16.4995 7.22599 16.4995 7.5021C16.4995 7.77783 16.7227 8.00139 16.9983 8.00201L16.9988 7.5021L16.9994 7.0022Z" fill="black" stroke="black" stroke-width="33"/>
<path d="M20.4989 13.5014C20.4989 13.7775 20.275 14.0013 19.999 14.0013C19.7233 14.0013 19.4997 13.7781 19.4991 13.5026L19.999 13.502L20.4989 13.5014ZM20.4989 13.5014C20.4989 13.501 20.4989 13.5006 20.4989 13.5002C20.4979 12.8421 20.3155 12.2265 19.999 11.7008C19.7034 11.2099 19.2909 10.7974 18.8 10.5019C18.2743 10.1853 17.6588 10.0029 17.0006 10.002C17.0002 10.002 16.9998 10.002 16.9994 10.002M20.4989 13.5014H19.999H19.4991C19.4974 12.1216 18.3792 11.0034 16.9994 11.0018V10.5019V10.002M16.9994 10.002C16.7233 10.002 16.4995 10.2257 16.4995 10.5019C16.4995 10.7776 16.7227 11.0012 16.9983 11.0018L16.9989 10.5019L16.9994 10.002Z" fill="black" stroke="black" stroke-width="33"/>
</svg>
