<svg width="540" height="540" xmlns="http://www.w3.org/2000/svg">
 <!-- Created with Method Draw - http://github.com/duopixel/Method-Draw/ -->

 <g>
  <title>background</title>
  <rect fill="none" id="canvas_background" height="542" width="542" y="-1" x="-1"/>
  <g display="none" overflow="visible" y="0" x="0" height="100%" width="100%" id="canvasGrid">
   <rect fill="url(#gridpattern)" stroke-width="0" y="2" x="2" height="600" width="800"/>
  </g>
 </g>
 <g>
  <title>Layer 1</title>
  <g stroke="null" id="svg_6">
   <path stroke-width="0" stroke="null" id="svg_4" fill="#ffffff" d="m455.16271,83.70765c-49.44747,-49.56554 -115.29871,-76.82651 -185.28085,-76.82651c-144.44818,0 -261.98928,117.5411 -261.98928,261.98981c0,46.1431 12.03742,91.22351 34.93203,130.99402l-37.17425,135.71531l138.9016,-36.46614c38.23552,20.8889 81.3104,31.86293 125.21182,31.86293l0.11808,0c144.32958,0 264.46764,-117.54039 264.46764,-261.98805c0,-69.98214 -29.73933,-135.71583 -79.18679,-185.28138zm-185.16277,415.40649c-39.18013,0 -81.15356,-14.20086 -114.55148,-34.02708l-10.89649,-8.81165l-94.84334,35.24661l26.43496,-91.65704l-7.47422,-14.08278c-21.83245,-34.69676 -36.58404,-75.6075 -36.58404,-116.79316c0,-120.01999 117.5411,-235.67293 237.67846,-235.67293c58.17982,0 126.5882,29.30667 167.65755,70.49322c41.06935,41.18654 70.61129,106.99813 70.49322,165.17971c0,120.1363 -117.89462,230.12511 -237.91461,230.12511zm119.31153,-175.36774c-6.49066,-3.30437 -38.70783,-19.11776 -44.72795,-21.24137c-6.01836,-2.24345 -10.38365,-3.30437 -14.75071,3.30437c-4.36705,6.60874 -16.87608,21.24137 -20.77083,25.7265c-3.77667,4.36529 -7.67142,4.95567 -14.16209,1.6513c-38.47167,-19.23584 -63.72587,-34.34077 -89.0999,-77.88796c-3.73438,-6.42193 -1.24773,-9.02313 3.84541,-14.35066c4.07803,-4.2666 9.82852,-10.28144 15.39219,-21.40703c2.12361,-4.36705 1.06092,-8.14373 -0.59038,-11.4481c-1.1649,-2.32804 -8.01155,-19.01026 -13.85368,-33.2446c-2.44964,-5.96901 -4.72305,-11.50696 -6.32677,-15.37669c-4.66665,-11.19943 -9.42494,-11.19097 -13.23158,-11.18445c-0.52517,0.00106 -1.03273,0.00194 -1.52089,-0.02679c-3.77491,-0.23598 -8.14197,-0.23598 -12.50902,-0.23598c-4.36617,0 -11.44704,1.65218 -17.46575,8.14285c-0.39582,0.43477 -0.83887,0.90936 -1.32087,1.4259c-6.84507,7.33447 -21.57357,23.11666 -21.57357,53.21374c0,31.38182 22.28132,61.75558 26.38244,67.3457c0.10944,0.1498 0.20584,0.28021 0.28849,0.39476c0.22734,0.2996 0.64166,0.89174 1.23786,1.74471c8.06918,11.53622 49.42685,70.66593 110.63787,97.15023c41.54165,17.937 57.82735,19.47199 78.59818,16.40377c12.6271,-1.88922 38.70783,-15.81339 44.1358,-31.15624c5.42974,-15.34109 5.42974,-28.44049 3.77667,-31.15448c-1.28298,-2.46726 -4.54681,-4.02693 -9.37736,-6.33558c-0.94461,-0.45116 -1.9509,-0.93227 -3.01359,-1.45392z"/>
   <path stroke-width="0" fill="#ffffff" stroke="black" id="svg_5" d="m455.16271,83.70765c-49.44747,-49.56554 -115.29871,-76.82651 -185.28085,-76.82651c-144.44818,0 -261.98928,117.5411 -261.98928,261.98981c0,46.1431 12.03742,91.22351 34.93203,130.99402l-37.17425,135.71531l138.9016,-36.46614c38.23552,20.8889 81.3104,31.86293 125.21182,31.86293l0.11808,0c144.32958,0 264.46764,-117.54039 264.46764,-261.98805c0,-69.98214 -29.73933,-135.71583 -79.18679,-185.28138zm-185.16277,415.40649c-39.18013,0 -81.15356,-14.20086 -114.55148,-34.02708l-10.89649,-8.81165l-94.84334,35.24661l26.43496,-91.65704l-7.47422,-14.08278c-21.83245,-34.69676 -36.58404,-75.6075 -36.58404,-116.79316c0,-120.01999 117.5411,-235.67293 237.67846,-235.67293c58.17982,0 126.5882,29.30667 167.65755,70.49322c41.06935,41.18654 70.61129,106.99813 70.49322,165.17971c0,120.1363 -117.89462,230.12511 -237.91461,230.12511zm119.31153,-175.36774c-6.49066,-3.30437 -38.70783,-19.11776 -44.72795,-21.24137c-6.01836,-2.24345 -10.38365,-3.30437 -14.75071,3.30437c-4.36705,6.60874 -16.87608,21.24137 -20.77083,25.7265c-3.77667,4.36529 -7.67142,4.95567 -14.16209,1.6513c-38.47167,-19.23584 -63.72587,-34.34077 -89.0999,-77.88796c-3.73438,-6.42193 -1.24773,-9.02313 3.84541,-14.35066c4.07803,-4.2666 9.82852,-10.28144 15.39219,-21.40703c2.12361,-4.36705 1.06092,-8.14373 -0.59038,-11.4481c-1.1649,-2.32804 -8.01155,-19.01026 -13.85368,-33.2446c-2.44964,-5.96901 -4.72305,-11.50696 -6.32677,-15.37669c-4.66665,-11.19943 -9.42494,-11.19097 -13.23158,-11.18445c-0.52517,0.00106 -1.03273,0.00194 -1.52089,-0.02679c-3.77491,-0.23598 -8.14197,-0.23598 -12.50902,-0.23598c-4.36617,0 -11.44704,1.65218 -17.46575,8.14285c-0.39582,0.43477 -0.83887,0.90936 -1.32087,1.4259c-6.84507,7.33447 -21.57357,23.11666 -21.57357,53.21374c0,31.38182 22.28132,61.75558 26.38244,67.3457c0.10944,0.1498 0.20584,0.28021 0.28849,0.39476c0.22734,0.2996 0.64166,0.89174 1.23786,1.74471c8.06918,11.53622 49.42685,70.66593 110.63787,97.15023c41.54165,17.937 57.82735,19.47199 78.59818,16.40377c12.6271,-1.88922 38.70783,-15.81339 44.1358,-31.15624c5.42974,-15.34109 5.42974,-28.44049 3.77667,-31.15448c-1.28298,-2.46726 -4.54681,-4.02693 -9.37736,-6.33558c-0.94461,-0.45116 -1.9509,-0.93227 -3.01359,-1.45392z"/>
  </g>
 </g>
</svg>