<svg width="31" height="31" viewBox="0 0 31 31" fill="none" xmlns="http://www.w3.org/2000/svg">
<path d="M26.0067 4.85937C23.2009 2.04687 19.4643 0.5 15.4933 0.5C7.29687 0.5 0.627232 7.16964 0.627232 15.3661C0.627232 17.9844 1.31027 20.5424 2.60938 22.7991L0.5 30.5L8.3817 28.4308C10.5513 29.6161 12.9955 30.2388 15.4866 30.2388H15.4933C23.683 30.2388 30.5 23.5692 30.5 15.3728C30.5 11.4018 28.8125 7.67187 26.0067 4.85937ZM15.5 28.4308C13.2768 28.4308 10.8951 27.625 9 26.5L8.3817 26L3 28L4.5 22.7991L4.07589 22C2.83705 20.0312 2 17.7098 2 15.3728C2 8.5625 8.66964 2 15.4866 2C18.7879 2 22.6696 3.66295 25 6C27.3304 8.33705 29.0067 12.0714 29 15.3728C29 22.1897 22.3103 28.4308 15.5 28.4308ZM22.2701 18.4799C21.9018 18.2924 20.0737 17.3951 19.7321 17.2746C19.3906 17.1473 19.1429 17.0871 18.8951 17.4621C18.6473 17.8371 17.9375 18.6674 17.7165 18.9219C17.5022 19.1696 17.2812 19.2031 16.9129 19.0156C14.7299 17.9241 13.2969 17.067 11.8571 14.596C11.6452 14.2316 11.7863 14.084 12.0753 13.7817C12.3067 13.5396 12.633 13.1983 12.9487 12.567C13.0692 12.3192 13.0089 12.1049 12.9152 11.9174C12.8491 11.7853 12.4606 10.8387 12.1291 10.031C11.9901 9.6923 11.8611 9.37806 11.7701 9.15848C11.5053 8.52299 11.2353 8.52347 11.0193 8.52384C10.9895 8.5239 10.9607 8.52395 10.933 8.52232C10.7188 8.50893 10.471 8.50893 10.2232 8.50893C9.97545 8.50893 9.57366 8.60268 9.23214 8.97098C9.20968 8.99565 9.18454 9.02258 9.15719 9.05189C8.76878 9.46807 7.93304 10.3636 7.93304 12.0714C7.93304 13.8521 9.19735 15.5756 9.43006 15.8928C9.43627 15.9013 9.44174 15.9087 9.44643 15.9152C9.45933 15.9322 9.48284 15.9658 9.51667 16.0142C9.97454 16.6688 12.3213 20.024 15.7946 21.5268C18.1518 22.5446 19.0759 22.6317 20.2545 22.4576C20.971 22.3504 22.4509 21.5603 22.7589 20.6897C23.067 19.8192 23.067 19.0759 22.9732 18.9219C22.9004 18.7819 22.7152 18.6934 22.4411 18.5624C22.3875 18.5368 22.3304 18.5095 22.2701 18.4799Z" fill="black"/>
<path d="M26.0067 4.85937C23.2009 2.04687 19.4643 0.5 15.4933 0.5C7.29687 0.5 0.627232 7.16964 0.627232 15.3661C0.627232 17.9844 1.31027 20.5424 2.60938 22.7991L0.5 30.5L8.3817 28.4308C10.5513 29.6161 12.9955 30.2388 15.4866 30.2388H15.4933C23.683 30.2388 30.5 23.5692 30.5 15.3728C30.5 11.4018 28.8125 7.67187 26.0067 4.85937ZM15.5 28.4308C13.2768 28.4308 10.8951 27.625 9 26.5L8.3817 26L3 28L4.5 22.7991L4.07589 22C2.83705 20.0312 2 17.7098 2 15.3728C2 8.5625 8.66964 2 15.4866 2C18.7879 2 22.6696 3.66295 25 6C27.3304 8.33705 29.0067 12.0714 29 15.3728C29 22.1897 22.3103 28.4308 15.5 28.4308ZM22.2701 18.4799C21.9018 18.2924 20.0737 17.3951 19.7321 17.2746C19.3906 17.1473 19.1429 17.0871 18.8951 17.4621C18.6473 17.8371 17.9375 18.6674 17.7165 18.9219C17.5022 19.1696 17.2812 19.2031 16.9129 19.0156C14.7299 17.9241 13.2969 17.067 11.8571 14.596C11.6452 14.2316 11.7863 14.084 12.0753 13.7817C12.3067 13.5396 12.633 13.1983 12.9487 12.567C13.0692 12.3192 13.0089 12.1049 12.9152 11.9174C12.8491 11.7853 12.4606 10.8387 12.1291 10.031C11.9901 9.6923 11.8611 9.37806 11.7701 9.15848C11.5053 8.52299 11.2353 8.52347 11.0193 8.52384C10.9895 8.5239 10.9607 8.52395 10.933 8.52232C10.7188 8.50893 10.471 8.50893 10.2232 8.50893C9.97545 8.50893 9.57366 8.60268 9.23214 8.97098C9.20968 8.99565 9.18454 9.02258 9.15719 9.05189C8.76878 9.46807 7.93304 10.3636 7.93304 12.0714C7.93304 13.8521 9.19735 15.5756 9.43006 15.8928C9.43627 15.9013 9.44174 15.9087 9.44643 15.9152C9.45933 15.9322 9.48284 15.9658 9.51667 16.0142C9.97454 16.6688 12.3213 20.024 15.7946 21.5268C18.1518 22.5446 19.0759 22.6317 20.2545 22.4576C20.971 22.3504 22.4509 21.5603 22.7589 20.6897C23.067 19.8192 23.067 19.0759 22.9732 18.9219C22.9004 18.7819 22.7152 18.6934 22.4411 18.5624C22.3875 18.5368 22.3304 18.5095 22.2701 18.4799Z" stroke="black"/>
</svg>
