<svg width="64" height="47" viewBox="0 0 64 47" fill="none" xmlns="http://www.w3.org/2000/svg">
<path d="M31.9963 46.2491C31.9909 46.2491 31.985 46.2491 31.9792 46.2491C30.048 46.2359 12.9757 46.0801 8.13881 44.772C4.75843 43.8633 2.08997 41.1978 1.17883 37.8169C-0.0867925 33.0655 -0.00622593 23.9175 0.00256315 23.187C-0.00573764 22.46 -0.0872808 13.2363 1.17493 8.44581C1.17639 8.44142 1.17737 8.43654 1.17883 8.43214C2.07972 5.08985 4.80824 2.3418 8.13051 1.43067C8.13881 1.42822 8.1476 1.42627 8.1559 1.42383C12.9381 0.166993 30.0441 0.0131836 31.9792 0H32.0138C33.9499 0.0131836 51.0676 0.168946 55.8601 1.47901C59.2317 2.38526 61.8982 5.04737 62.8117 8.42384C64.1247 13.2178 64.0032 22.4615 63.99 23.2417C63.9993 24.0103 64.0759 33.0762 62.8176 37.8516C62.8166 37.8565 62.8152 37.8609 62.8142 37.8653C61.9026 41.2462 59.2346 43.9117 55.8503 44.8214C55.8459 44.8228 55.841 44.8238 55.8366 44.8253C51.0549 46.0816 33.9484 46.2354 32.0138 46.2491C32.008 46.2491 32.0021 46.2491 31.9963 46.2491ZM6.00794 9.72804C4.89661 13.9566 5.0016 23.0625 5.00257 23.1543V23.2202C4.96937 25.7456 5.08607 33.0591 6.00843 36.523C6.4557 38.1817 7.77162 39.4957 9.44057 39.9444C13.0094 40.9097 26.9142 41.2134 31.9963 41.2491C37.0915 41.2134 51.0168 40.918 54.5593 39.9913C56.2229 39.5411 57.5344 38.2315 57.9846 36.5709C58.9079 33.0562 59.0237 25.7784 58.99 23.2691C58.99 23.2427 58.99 23.2163 58.9905 23.19C59.0364 20.6343 58.946 13.2354 57.989 9.74367C57.988 9.74025 57.987 9.73683 57.9865 9.73341C57.5373 8.06739 56.2209 6.75343 54.552 6.3047C51.0178 5.33839 37.0905 5.03565 31.9963 5.00001C26.9045 5.03565 12.9928 5.33057 9.43959 6.25636C7.80238 6.71046 6.45668 8.0713 6.00794 9.72804ZM60.4001 37.2149H60.4016H60.4001ZM25.6237 33.2491V12.9995L43.1237 23.1245L25.6237 33.2491Z" fill="black"/>
</svg>
